<svg width="147" height="72" viewBox="0 0 147 72" fill="none" xmlns="http://www.w3.org/2000/svg">
<path fill-rule="evenodd" clip-rule="evenodd" d="M30.7941 48.9486C34.7589 51.883 40.2141 52.3817 44.7225 49.7788C50.8033 46.2681 52.8589 38.4442 49.3137 32.3037C47.9767 29.9881 46.0343 28.2426 43.8069 27.1547C42.8155 31.0607 40.3201 34.5697 36.5685 36.7357C36.0055 37.0608 35.4304 37.3462 34.8464 37.5929C35.1279 41.7481 33.6836 45.8908 30.7941 48.9486Z" fill="#5C93FF"/>
<path fill-rule="evenodd" clip-rule="evenodd" d="M16.0162 23.8965C22.3941 22.2498 29.3601 24.9975 32.8382 31.0217C33.538 32.2339 34.0524 33.5019 34.3899 34.7927C34.6499 34.6655 34.9073 34.5285 35.1616 34.3816C41.2425 30.8709 43.298 23.047 39.7528 16.9065C36.2076 10.7661 28.4042 8.63427 22.3233 12.145C18.0375 14.6195 15.7512 19.2364 16.0162 23.8965Z" fill="#FF5151"/>
<path fill-rule="evenodd" clip-rule="evenodd" d="M8.82326 44.9346C12.3685 51.0751 20.1719 53.2069 26.2528 49.6961C32.3336 46.1853 34.3892 38.3614 30.844 32.221C27.2988 26.0805 19.4953 23.9487 13.4145 27.4595C7.33361 30.9703 5.27806 38.7941 8.82326 44.9346Z" fill="#FFC055"/>
<path fill-rule="evenodd" clip-rule="evenodd" d="M68.5028 34.1555C68.5222 34.1555 68.5561 34.1604 68.6046 34.1701C69.0508 34.1992 69.3757 34.2137 69.5794 34.2137C71.1217 34.2137 72.2832 33.816 73.064 33.0207C73.8449 32.2253 74.2353 31.0371 74.2353 29.456C74.2353 28.0302 73.8764 26.939 73.1586 26.1824C72.4408 25.4258 71.4078 25.0476 70.0596 25.0476H68.5028V34.1555ZM62.2756 43.3071V41.8522L64.0361 41.6921L64.5744 41.2265V25.3385L64.1234 24.9166L62.1592 24.7711V23.3162H70.205C73.047 23.3162 75.113 23.7963 76.4031 24.7566C77.6931 25.7168 78.3382 27.2397 78.3382 29.3251C78.3382 31.4202 77.6544 33.0473 76.2867 34.2064C74.919 35.3655 73.0034 35.9451 70.5397 35.9451C70.3069 35.9451 70.0207 35.9378 69.6812 35.9233C69.3418 35.9087 68.9489 35.8869 68.5027 35.8578V41.2265L68.9538 41.6921L71.078 41.8522V43.3071H62.2756ZM79.3559 43.3071V41.9686L80.9417 41.8522L81.3637 41.4012V31.1147H79.2104V29.9217L83.5897 28.5249H85.0301L84.8992 31.5657C85.4133 31.0226 85.9613 30.4964 86.5433 29.9871C87.1253 29.4779 87.7363 28.9953 88.3765 28.5395C88.5414 28.5104 88.6748 28.491 88.7766 28.4813C88.8785 28.4716 88.9682 28.4667 89.0458 28.4667C89.3659 28.4667 89.6884 28.5079 90.0133 28.5904C90.3383 28.6728 90.6705 28.8013 91.01 28.9759L90.6317 33.0934H89.0749C88.8518 32.7248 88.5826 32.4533 88.2674 32.2787C87.9522 32.1041 87.5763 32.0168 87.1398 32.0168C86.8876 32.0168 86.5845 32.0871 86.2305 32.2277C85.8764 32.3684 85.4763 32.5745 85.0301 32.8461V41.4012L85.4666 41.8522L87.5908 41.9686V43.3071H79.3559ZM99.3315 30.0235C98.2451 30.0235 97.3964 30.5424 96.7853 31.5803C96.1742 32.6181 95.8687 34.0731 95.8687 35.9451C95.8687 37.8462 96.1718 39.3254 96.778 40.3827C97.3843 41.44 98.2257 41.9686 99.3024 41.9686C100.428 41.9686 101.296 41.4545 101.907 40.4263C102.518 39.3982 102.823 37.9335 102.823 36.0324C102.823 34.141 102.515 32.6666 101.899 31.6094C101.284 30.5521 100.428 30.0235 99.3315 30.0235ZM99.4478 28.4376C101.737 28.4376 103.556 29.1287 104.904 30.5109C106.252 31.8931 106.926 33.7627 106.926 36.1197C106.926 38.3506 106.223 40.145 104.817 41.503C103.41 42.8609 101.543 43.5399 99.215 43.5399C96.9744 43.5399 95.1679 42.8537 93.7953 41.4812C92.4228 40.1087 91.7366 38.3021 91.7366 36.0615C91.7366 33.7627 92.4398 31.9173 93.8463 30.5254C95.2527 29.1335 97.1199 28.4376 99.4478 28.4376ZM121.242 41.9686C120.263 42.5021 119.312 42.8974 118.39 43.1544C117.469 43.4115 116.543 43.54 115.612 43.54C113.478 43.54 111.754 42.8659 110.439 41.5176C109.125 40.1694 108.468 38.404 108.468 36.2216C108.468 33.9616 109.188 32.109 110.628 30.6637C112.069 29.2185 113.909 28.4958 116.15 28.4958C117.615 28.4958 118.8 28.799 119.707 29.4052C120.614 30.0114 121.068 30.7898 121.068 31.7404C121.068 32.3321 120.866 32.8195 120.464 33.2026C120.061 33.5857 119.55 33.7773 118.929 33.7773C118.589 33.7773 118.277 33.7312 117.99 33.6391C117.704 33.5469 117.43 33.4039 117.168 33.2099V30.0526C117.003 30.0138 116.86 29.9872 116.739 29.9726C116.618 29.9581 116.509 29.9508 116.412 29.9508C115.306 29.9508 114.38 30.4721 113.633 31.5149C112.886 32.5576 112.513 33.884 112.513 35.4941C112.513 37.2595 112.925 38.6514 113.749 39.6698C114.574 40.6883 115.694 41.1975 117.11 41.1975C117.75 41.1975 118.42 41.0835 119.118 40.8556C119.816 40.6277 120.524 40.2906 121.242 39.8444V41.9686ZM129.898 30.0234C128.812 30.0234 127.963 30.5424 127.352 31.5802C126.741 32.6181 126.436 34.073 126.436 35.9451C126.436 37.8462 126.739 39.3254 127.345 40.3826C127.951 41.4399 128.793 41.9685 129.869 41.9685C130.994 41.9685 131.862 41.4545 132.474 40.4263C133.085 39.3981 133.39 37.9335 133.39 36.0324C133.39 34.1409 133.082 32.6666 132.466 31.6093C131.85 30.5521 130.994 30.0234 129.898 30.0234ZM130.015 28.4376C132.304 28.4376 134.122 29.1287 135.471 30.5109C136.819 31.8931 137.493 33.7627 137.493 36.1197C137.493 38.3506 136.79 40.145 135.383 41.503C133.977 42.8609 132.11 43.5399 129.782 43.5399C127.541 43.5399 125.735 42.8537 124.362 41.4812C122.99 40.1087 122.303 38.3021 122.303 36.0615C122.303 33.7627 123.007 31.9173 124.413 30.5254C125.82 29.1335 127.687 28.4376 130.015 28.4376ZM138.671 43.3071V41.9977L140.402 41.8231L140.824 41.4012V23.8836H138.671V22.6906L143.167 21.2938H144.476V41.343L144.927 41.8231L146.659 41.9977V43.3071H138.671Z" fill="black"/>
</svg>
